<svg width="688.5599609375px" height="127.84000244140624px" xmlns="http://www.w3.org/2000/svg" viewBox="-94.27998046875001 11.07999877929688 688.5599609375 127.84000244140624" style="background: rgba(0, 0, 0, 0) none repeat scroll 0% 0%;" preserveAspectRatio="xMidYMid"><defs><linearGradient id="editing-sticker-gradient" x1="0.5" y1="0.2" x2="0.5" y2="0.8"><stop offset="0" stop-color="#fd9"></stop><stop offset="1" stop-color="#9df"></stop></linearGradient><filter id="editing-sticker" x="-100%" y="-100%" width="300%" height="300%"><feMorphology operator="erode" radius="1" in="SourceAlpha" result="alpha-erode"></feMorphology><feConvolveMatrix order="3,3" divisor="1" kernelMatrix="0 1 0 1 1 1 0 1 0" in="alpha-erode" result="alpha-round"></feConvolveMatrix><feMorphology operator="dilate" radius="3.5" in="alpha-round" result="dilate-shadow"></feMorphology><feGaussianBlur in="dilate-shadow" stdDeviation="1.5" result="shadow"></feGaussianBlur><feFlood flood-color="#fff" result="flood-sticker"></feFlood><feComposite operator="in" in="flood-sticker" in2="alpha-round" result="comp-sticker"></feComposite><feMorphology operator="dilate" radius="3" in="comp-sticker" result="morph-sticker"></feMorphology><feConvolveMatrix order="3,3" divisor="1" kernelMatrix="0 1 0 1 1 1 0 1 0" in="morph-sticker" result="sticker"></feConvolveMatrix><feMerge><feMergeNode in="shadow"></feMergeNode><feMergeNode in="sticker"></feMergeNode><feMergeNode in="SourceGraphic"></feMergeNode></feMerge></filter></defs><g filter="url(#editing-sticker)"><g transform="translate(8.806457757949829, 104.44000053405762)"><path d="M5.63-26.75L5.63-26.75L5.63-26.75Q7.81-29.82 11.10-31.87L11.10-31.87L11.10-31.87Q14.40-33.92 18.43-33.92L18.43-33.92L18.43-33.92Q22.46-33.92 24.38-32.64L24.38-32.64L36.93-33.92L32.58-9.34L32.58-9.34Q30.34 3.20 25.60 8.13L25.60 8.13L25.60 8.13Q21.06 12.80 12.22 12.80L12.22 12.80L12.22 12.80Q5.50 12.80 1.66 10.69L1.66 10.69L1.66 10.69Q-2.18 8.58-2.18 5.06L-2.18 5.06L-2.18 5.06Q-2.18 2.43-0.19 0.93L-0.19 0.93L-0.19 0.93Q1.79-0.58 4.86-0.58L4.86-0.58L4.86-0.58Q7.55-0.58 9.60 0.64L9.60 0.64L9.60 0.64Q10.82 1.28 11.39 2.18L11.39 2.18L11.39 2.18Q9.92 3.46 9.92 5.57L9.92 5.57L9.92 5.57Q9.92 8.32 12.48 8.32L12.48 8.32L12.48 8.32Q16.77 8.32 19.20-1.79L19.20-1.79L19.20-1.79Q19.90-4.54 20.48-7.30L20.48-7.30L20.48-7.30Q17.60-3.78 11.07-3.78L11.07-3.78L11.07-3.78Q6.53-3.78 3.90-5.95L3.90-5.95L3.90-5.95Q1.28-8.13 1.28-13.25L1.28-13.25L1.28-13.25Q1.28-16.45 2.37-20.06L2.37-20.06L2.37-20.06Q3.46-23.68 5.63-26.75ZM13.95-13.06L13.95-13.06L13.95-13.06Q13.95-8.70 16.19-8.70L16.19-8.70L16.19-8.70Q17.73-8.70 19.20-10.37L19.20-10.37L19.20-10.37Q20.35-11.71 20.80-13.70L20.80-13.70L24.06-30.14L24.06-30.14Q23.74-30.21 23.42-30.34L23.42-30.34L23.42-30.34Q22.78-30.59 21.95-30.59L21.95-30.59L21.95-30.59Q18.05-30.59 15.74-24.19L15.74-24.19L15.74-24.19Q13.95-19.20 13.95-13.06ZM71.62-7.10L71.62-7.10L71.62-7.10Q71.62-4.29 74.50-3.46L74.50-3.46L74.50-3.46Q73.79-1.09 71.04 0.19L71.04 0.19L71.04 0.19Q68.74 1.28 66.21 1.28L66.21 1.28L66.21 1.28Q63.68 1.28 62.37 0.61L62.37 0.61L62.37 0.61Q61.06-0.06 60.35-1.15L60.35-1.15L60.35-1.15Q59.20-2.82 59.20-5.95L59.20-5.95L59.20-5.95Q59.20-7.81 60.22-12.93L60.22-12.93L61.12-17.79L61.12-17.79Q62.21-23.36 62.21-25.41L62.21-25.41L62.21-25.41Q62.21-28.99 60.22-28.99L60.22-28.99L60.22-28.99Q57.73-28.99 56.13-25.34L56.13-25.34L56.13-25.34Q55.49-23.94 55.04-21.82L55.04-21.82L50.69 0L37.82 1.28L46.85-44.80L59.71-46.08L59.20-43.52L59.20-43.52Q57.41-33.66 55.87-30.34L55.87-30.34L55.87-30.34Q59.46-33.92 66.05-33.92L66.05-33.92L66.05-33.92Q73.02-33.92 74.30-29.31L74.30-29.31L74.30-29.31Q74.75-27.84 74.75-26.56L74.75-26.56L74.75-26.56Q74.75-25.28 74.66-24.29L74.66-24.29L74.66-24.29Q74.56-23.30 74.24-21.50L74.24-21.50L73.41-16.90L71.94-9.66L71.94-9.66Q71.62-8.19 71.62-7.10ZM105.60-10.82L105.60-10.82L105.60-10.82Q107.20-9.73 107.20-7.33L107.20-7.33L107.20-7.33Q107.20-4.93 105.98-3.39L105.98-3.39L105.98-3.39Q104.77-1.86 102.78-0.83L102.78-0.83L102.78-0.83Q98.69 1.28 94.27 1.28L94.27 1.28L94.27 1.28Q89.86 1.28 87.26 0.32L87.26 0.32L87.26 0.32Q84.67-0.64 82.94-2.43L82.94-2.43L82.94-2.43Q79.55-5.82 79.55-12.03L79.55-12.03L79.55-12.03Q79.55-21.70 84.80-27.58L84.80-27.58L84.80-27.58Q90.43-33.92 100.22-33.92L100.22-33.92L100.22-33.92Q106.30-33.92 109.31-31.36L109.31-31.36L109.31-31.36Q111.55-29.44 111.55-26.30L111.55-26.30L111.55-26.30Q111.55-15.04 92.10-15.04L92.10-15.04L92.10-15.04Q91.84-13.38 91.84-11.97L91.84-11.97L91.84-11.97Q91.84-9.02 93.15-7.90L93.15-7.90L93.15-7.90Q94.46-6.78 96.90-6.78L96.90-6.78L96.90-6.78Q99.33-6.78 101.92-7.90L101.92-7.90L101.92-7.90Q104.51-9.02 105.60-10.82ZM92.54-17.79L92.54-17.79L92.54-17.79Q97.09-17.79 99.71-20.61L99.71-20.61L99.71-20.61Q102.34-23.30 102.34-27.58L102.34-27.58L102.34-27.58Q102.34-29.06 101.79-29.86L101.79-29.86L101.79-29.86Q101.25-30.66 100.16-30.66L100.16-30.66L100.16-30.66Q99.07-30.66 98.14-30.24L98.14-30.24L98.14-30.24Q97.22-29.82 96.26-28.42L96.26-28.42L96.26-28.42Q93.89-25.22 92.54-17.79ZM114.75-6.40L114.75-6.40L114.75-6.40Q114.75-8.13 115.65-12.48L115.65-12.48L119.04-29.76L115.26-29.76L115.52-31.68L115.52-31.68Q123.20-33.98 130.62-39.62L130.62-39.62L133.70-39.62L132.16-32.64L137.15-32.64L136.58-29.76L131.65-29.76L128.38-12.48L128.38-12.48Q127.55-8.51 127.55-7.17L127.55-7.17L127.55-7.17Q127.55-4.10 130.24-3.46L130.24-3.46L130.24-3.46Q129.60-1.28 127.30 0L127.30 0L127.30 0Q124.99 1.28 121.73 1.28L121.73 1.28L121.73 1.28Q118.46 1.28 116.61-0.77L116.61-0.77L116.61-0.77Q114.75-2.82 114.75-6.40ZM137.86-6.40L137.86-6.40L137.86-6.40Q137.86-8.13 138.75-12.48L138.75-12.48L142.14-29.76L138.37-29.76L138.62-31.68L138.62-31.68Q146.30-33.98 153.73-39.62L153.73-39.62L156.80-39.62L155.26-32.64L160.26-32.64L159.68-29.76L154.75-29.76L151.49-12.48L151.49-12.48Q150.66-8.51 150.66-7.17L150.66-7.17L150.66-7.17Q150.66-4.10 153.34-3.46L153.34-3.46L153.34-3.46Q152.70-1.28 150.40 0L150.40 0L150.40 0Q148.10 1.28 144.83 1.28L144.83 1.28L144.83 1.28Q141.57 1.28 139.71-0.77L139.71-0.77L139.71-0.77Q137.86-2.82 137.86-6.40ZM173.63 1.28L173.63 1.28L173.63 1.28Q159.55 1.28 159.55-11.97L159.55-11.97L159.55-11.97Q159.55-21.38 164.74-27.46L164.74-27.46L164.74-27.46Q170.24-33.92 179.78-33.92L179.78-33.92L179.78-33.92Q186.69-33.92 190.21-30.72L190.21-30.72L190.21-30.72Q193.73-27.52 193.73-20.80L193.73-20.80L193.73-20.80Q193.73-10.56 188.22-4.61L188.22-4.61L188.22-4.61Q182.85 1.28 173.63 1.28ZM175.30-26.56L175.30-26.56L175.30-26.56Q174.53-24.83 173.92-22.24L173.92-22.24L173.92-22.24Q173.31-19.65 172.54-15.55L172.54-15.55L172.54-15.55Q171.78-11.46 171.78-6.40L171.78-6.40L171.78-6.40Q171.78-4.74 172.32-3.65L172.32-3.65L172.32-3.65Q172.86-2.56 174.34-2.56L174.34-2.56L174.34-2.56Q175.81-2.56 176.74-3.26L176.74-3.26L176.74-3.26Q177.66-3.97 178.37-5.63L178.37-5.63L178.37-5.63Q179.65-8.58 180.67-14.05L180.67-14.05L180.67-14.05Q181.70-19.52 181.79-21.89L181.79-21.89L181.79-21.89Q181.89-24.26 181.89-26.02L181.89-26.02L181.89-26.02Q181.89-27.78 181.38-28.93L181.38-28.93L181.38-28.93Q180.86-30.08 179.42-30.08L179.42-30.08L179.42-30.08Q177.98-30.08 177.02-29.18L177.02-29.18L177.02-29.18Q176.06-28.29 175.30-26.56ZM214.02-30.34L214.02-30.34L214.02-30.34Q217.47-33.92 224.77-33.92L224.77-33.92L224.77-33.92Q228.80-33.92 231.01-31.78L231.01-31.78L231.01-31.78Q233.22-29.63 233.22-25.70L233.22-25.70L233.22-25.70Q233.22-21.76 231.01-18.98L231.01-18.98L231.01-18.98Q228.80-16.19 224.70-15.04L224.70-15.04L224.70-15.04Q225.02-13.76 225.47-12.42L225.47-12.42L226.37-9.86L226.37-9.86Q227.58-6.59 228.54-5.44L228.54-5.44L228.54-5.44Q229.50-4.29 230.78-3.90L230.78-3.90L230.78-3.90Q230.08-1.28 227.52 0.13L227.52 0.13L227.52 0.13Q225.47 1.28 222.66 1.28L222.66 1.28L222.66 1.28Q214.40 1.28 213.31-11.46L213.31-11.46L213.31-11.46Q213.12-13.25 213.12-15.04L213.12-15.04L213.12-15.04Q216.32-15.94 218.56-18.94L218.56-18.94L218.56-18.94Q220.80-21.95 220.80-25.47L220.80-25.47L220.80-25.47Q220.80-28.99 218.30-28.99L218.30-28.99L218.30-28.99Q216.51-28.99 215.10-27.01L215.10-27.01L215.10-27.01Q213.70-25.02 213.06-21.63L213.06-21.63L208.83 0L195.90 1.28L204.86-44.80L217.73-46.08L216.26-38.46L216.26-38.46Q215.30-33.09 214.02-30.34ZM238.94-1.92L238.94-1.92L238.94-1.92Q237.44-3.58 236.77-6.21L236.77-6.21L236.77-6.21Q236.10-8.83 236.10-13.12L236.10-13.12L236.10-13.12Q236.10-17.41 237.57-21.31L237.57-21.31L237.57-21.31Q239.04-25.22 241.73-28.03L241.73-28.03L241.73-28.03Q247.23-33.92 256.32-33.92L256.32-33.92L256.32-33.92Q259.58-33.92 261.95-32.83L261.95-32.83L272.90-33.92L268.16-8.96L268.16-8.96Q267.97-8.19 267.97-6.78L267.97-6.78L267.97-6.78Q267.97-5.38 268.83-4.48L268.83-4.48L268.83-4.48Q269.70-3.58 270.98-3.46L270.98-3.46L270.98-3.46Q270.34-1.28 268 0L268 0L268 0Q265.66 1.28 263.04 1.28L263.04 1.28L263.04 1.28Q260.42 1.28 258.66 0.29L258.66 0.29L258.66 0.29Q256.90-0.70 256.38-2.37L256.38-2.37L256.38-2.37Q255.36-0.77 253.18 0.26L253.18 0.26L253.18 0.26Q251.01 1.28 248.10 1.28L248.10 1.28L248.10 1.28Q245.18 1.28 242.82 0.51L242.82 0.51L242.82 0.51Q240.45-0.26 238.94-1.92ZM252.45-27.90L252.45-27.90L252.45-27.90Q251.71-26.75 251.07-24.80L251.07-24.80L251.07-24.80Q250.43-22.85 249.38-17.63L249.38-17.63L249.38-17.63Q248.32-12.42 248.32-8.70L248.32-8.70L248.32-8.70Q248.32-4.99 248.90-3.90L248.90-3.90L248.90-3.90Q249.47-2.82 250.50-2.82L250.50-2.82L250.50-2.82Q252.54-2.82 254.05-4.77L254.05-4.77L254.05-4.77Q255.55-6.72 256.13-10.18L256.13-10.18L259.52-28.93L259.52-28.93Q258.18-30.08 256.61-30.08L256.61-30.08L256.61-30.08Q255.04-30.08 254.11-29.57L254.11-29.57L254.11-29.57Q253.18-29.06 252.45-27.90ZM291.65-3.52L291.65-3.52L291.65-3.52Q289.66 1.28 283.33 1.28L283.33 1.28L283.33 1.28Q280.13 1.28 278.08-0.96L278.08-0.96L278.08-0.96Q276.42-2.82 276.42-4.93L276.42-4.93L276.42-4.93Q276.42-9.73 278.66-20.22L278.66-20.22L283.33-44.80L296.32-46.08L290.11-13.70L290.11-13.70Q289.02-8.96 289.02-7.30L289.02-7.30L289.02-7.30Q289.02-3.65 291.65-3.52ZM299.87-1.92L299.87-1.92L299.87-1.92Q298.37-3.58 297.70-6.21L297.70-6.21L297.70-6.21Q297.02-8.83 297.02-13.12L297.02-13.12L297.02-13.12Q297.02-17.41 298.50-21.31L298.50-21.31L298.50-21.31Q299.97-25.22 302.66-28.03L302.66-28.03L302.66-28.03Q308.16-33.92 317.25-33.92L317.25-33.92L317.25-33.92Q320.51-33.92 322.88-32.83L322.88-32.83L333.82-33.92L329.09-8.96L329.09-8.96Q328.90-8.19 328.90-6.78L328.90-6.78L328.90-6.78Q328.90-5.38 329.76-4.48L329.76-4.48L329.76-4.48Q330.62-3.58 331.90-3.46L331.90-3.46L331.90-3.46Q331.26-1.28 328.93 0L328.93 0L328.93 0Q326.59 1.28 323.97 1.28L323.97 1.28L323.97 1.28Q321.34 1.28 319.58 0.29L319.58 0.29L319.58 0.29Q317.82-0.70 317.31-2.37L317.31-2.37L317.31-2.37Q316.29-0.77 314.11 0.26L314.11 0.26L314.11 0.26Q311.94 1.28 309.02 1.28L309.02 1.28L309.02 1.28Q306.11 1.28 303.74 0.51L303.74 0.51L303.74 0.51Q301.38-0.26 299.87-1.92ZM313.38-27.90L313.38-27.90L313.38-27.90Q312.64-26.75 312-24.80L312-24.80L312-24.80Q311.36-22.85 310.30-17.63L310.30-17.63L310.30-17.63Q309.25-12.42 309.25-8.70L309.25-8.70L309.25-8.70Q309.25-4.99 309.82-3.90L309.82-3.90L309.82-3.90Q310.40-2.82 311.42-2.82L311.42-2.82L311.42-2.82Q313.47-2.82 314.98-4.77L314.98-4.77L314.98-4.77Q316.48-6.72 317.06-10.18L317.06-10.18L320.45-28.93L320.45-28.93Q319.10-30.08 317.54-30.08L317.54-30.08L317.54-30.08Q315.97-30.08 315.04-29.57L315.04-29.57L315.04-29.57Q314.11-29.06 313.38-27.90ZM356.42-22.46L356.42-22.46L356.42-22.46Q357.31-24.83 357.31-26.88L357.31-26.88L357.31-26.88Q357.31-30.66 354.24-30.66L354.24-30.66L354.24-30.66Q352.64-30.66 351.33-29.22L351.33-29.22L351.33-29.22Q350.02-27.78 350.02-25.98L350.02-25.98L350.02-25.98Q350.02-24.70 351.04-23.68L351.04-23.68L351.04-23.68Q352.51-22.27 356.29-19.97L356.29-19.97L356.29-19.97Q360.06-17.66 361.50-15.78L361.50-15.78L361.50-15.78Q362.94-13.89 362.94-11.30L362.94-11.30L362.94-11.30Q362.94-8.70 361.70-6.34L361.70-6.34L361.70-6.34Q360.45-3.97 358.21-2.30L358.21-2.30L358.21-2.30Q353.41 1.28 345.73 1.28L345.73 1.28L345.73 1.28Q341.57 1.28 338.37-0.90L338.37-0.90L338.37-0.90Q335.17-3.01 335.17-5.50L335.17-5.50L335.17-5.50Q335.17-8 336.99-9.47L336.99-9.47L336.99-9.47Q338.82-10.94 341.50-10.94L341.50-10.94L341.50-10.94Q344.19-10.94 345.86-9.92L345.86-9.92L345.86-9.92Q345.02-7.81 345.02-6.40L345.02-6.40L345.02-6.40Q345.02-2.18 348.61-2.18L348.61-2.18L348.61-2.18Q350.14-2.18 351.17-3.14L351.17-3.14L351.17-3.14Q352.19-4.10 352.19-5.76L352.19-5.76L352.19-5.76Q352.19-9.02 346.69-12.48L346.69-12.48L346.69-12.48Q342.21-15.42 341.18-16.58L341.18-16.58L341.18-16.58Q339.46-18.62 339.46-21.18L339.46-21.18L339.46-21.18Q339.46-23.74 340.67-26.18L340.67-26.18L340.67-26.18Q341.89-28.61 344.13-30.34L344.13-30.34L344.13-30.34Q348.80-33.92 356.93-33.92L356.93-33.92L356.93-33.92Q361.09-33.92 363.55-32.26L363.55-32.26L363.55-32.26Q366.02-30.59 366.02-27.78L366.02-27.78L366.02-27.78Q366.02-24.96 364.32-23.36L364.32-23.36L364.32-23.36Q362.62-21.76 359.55-21.76L359.55-21.76L359.55-21.76Q357.44-21.76 356.42-22.46ZM400.58-7.10L400.58-7.10L400.58-7.10Q400.58-4.29 403.46-3.46L403.46-3.46L403.46-3.46Q402.75-1.09 400 0.19L400 0.19L400 0.19Q397.70 1.28 395.17 1.28L395.17 1.28L395.17 1.28Q392.64 1.28 391.33 0.61L391.33 0.61L391.33 0.61Q390.02-0.06 389.31-1.15L389.31-1.15L389.31-1.15Q388.16-2.82 388.16-5.95L388.16-5.95L388.16-5.95Q388.16-7.81 389.18-12.93L389.18-12.93L390.08-17.79L390.08-17.79Q391.17-23.36 391.17-25.41L391.17-25.41L391.17-25.41Q391.17-28.99 389.18-28.99L389.18-28.99L389.18-28.99Q386.69-28.99 385.09-25.34L385.09-25.34L385.09-25.34Q384.45-23.94 384-21.82L384-21.82L379.65 0L366.78 1.28L375.81-44.80L388.67-46.08L388.16-43.52L388.16-43.52Q386.37-33.66 384.83-30.34L384.83-30.34L384.83-30.34Q388.42-33.92 395.01-33.92L395.01-33.92L395.01-33.92Q401.98-33.92 403.26-29.31L403.26-29.31L403.26-29.31Q403.71-27.84 403.71-26.56L403.71-26.56L403.71-26.56Q403.71-25.28 403.62-24.29L403.62-24.29L403.62-24.29Q403.52-23.30 403.20-21.50L403.20-21.50L402.37-16.90L400.90-9.66L400.90-9.66Q400.58-8.19 400.58-7.10ZM422.59 1.28L422.59 1.28L422.59 1.28Q408.51 1.28 408.51-11.97L408.51-11.97L408.51-11.97Q408.51-21.38 413.70-27.46L413.70-27.46L413.70-27.46Q419.20-33.92 428.74-33.92L428.74-33.92L428.74-33.92Q435.65-33.92 439.17-30.72L439.17-30.72L439.17-30.72Q442.69-27.52 442.69-20.80L442.69-20.80L442.69-20.80Q442.69-10.56 437.18-4.61L437.18-4.61L437.18-4.61Q431.81 1.28 422.59 1.28ZM424.26-26.56L424.26-26.56L424.26-26.56Q423.49-24.83 422.88-22.24L422.88-22.24L422.88-22.24Q422.27-19.65 421.50-15.55L421.50-15.55L421.50-15.55Q420.74-11.46 420.74-6.40L420.74-6.40L420.74-6.40Q420.74-4.74 421.28-3.65L421.28-3.65L421.28-3.65Q421.82-2.56 423.30-2.56L423.30-2.56L423.30-2.56Q424.77-2.56 425.70-3.26L425.70-3.26L425.70-3.26Q426.62-3.97 427.33-5.63L427.33-5.63L427.33-5.63Q428.61-8.58 429.63-14.05L429.63-14.05L429.63-14.05Q430.66-19.52 430.75-21.89L430.75-21.89L430.75-21.89Q430.85-24.26 430.85-26.02L430.85-26.02L430.85-26.02Q430.85-27.78 430.34-28.93L430.34-28.93L430.34-28.93Q429.82-30.08 428.38-30.08L428.38-30.08L428.38-30.08Q426.94-30.08 425.98-29.18L425.98-29.18L425.98-29.18Q425.02-28.29 424.26-26.56ZM476.29-4.38L476.29-4.38L476.29-4.38Q473.60-1.66 469.92-0.19L469.92-0.19L469.92-0.19Q466.24 1.28 462.59 1.28L462.59 1.28L462.59 1.28Q458.94 1.28 457.66 0.64L457.66 0.64L455.68 11.52L442.69 12.80L451.52-32.64L461.95-33.73L461.12-29.31L461.12-29.31Q463.81-33.86 469.38-33.86L469.38-33.86L469.38-33.86Q475.65-33.86 478.98-29.82L478.98-29.82L478.98-29.82Q481.92-26.18 481.92-20.61L481.92-20.61L481.92-20.61Q481.92-15.04 480.45-11.07L480.45-11.07L480.45-11.07Q478.98-7.10 476.29-4.38ZM461.82-22.34L458.43-3.58L458.43-3.58Q459.78-2.43 461.44-2.43L461.44-2.43L461.44-2.43Q463.10-2.43 464.06-3.07L464.06-3.07L464.06-3.07Q465.02-3.71 465.73-4.99L465.73-4.99L465.73-4.99Q467.65-8.45 469.18-18.94L469.18-18.94L469.18-18.94Q469.63-22.02 469.63-25.02L469.63-25.02L469.63-25.02Q469.63-28.03 468.96-28.99L468.96-28.99L468.96-28.99Q468.29-29.95 467.01-29.95L467.01-29.95L467.01-29.95Q463.10-29.95 461.82-22.34L461.82-22.34Z" fill="url(#editing-sticker-gradient)" stroke="#000000" stroke-width="2.5"></path></g></g><style>text {
  font-size: 64px;
  font-family: Arial Black;
  dominant-baseline: central;
  text-anchor: middle;
}</style></svg>